<svg height="496pt" viewBox="0 0 496 496" width="496pt" xmlns="http://www.w3.org/2000/svg"><path d="m456 0h-144c-22.054688 0-40 17.945312-40 40v104h-48.808594c-3.71875-18.230469-19.871094-32-39.191406-32h-144c-22.054688 0-40 17.945312-40 40v304c0 22.054688 17.945312 40 40 40h144c22.054688 0 40-17.945312 40-40v-104h48.808594c3.71875 18.230469 19.871094 32 39.191406 32h144c22.054688 0 40-17.945312 40-40v-304c0-22.054688-17.945312-40-40-40zm-144 16h144c13.230469 0 24 10.769531 24 24v8h-192v-8c0-13.230469 10.769531-24 24-24zm-24 48h192v240h-88v-16h72v-208h-160v64h-16zm32 80v-48h128v176h-56v-128zm44.6875 16-81.375 81.375c-9.433594 9.433594-21.976562 14.625-35.3125 14.625s-25.878906-5.191406-35.3125-14.625l-81.375-81.375zm-163.3125 92.6875c1.359375 1.359375 2.792969 2.625 4.25 3.847656l-85.625 70.511719v-155.734375zm-25.375 99.3125v32h-128v-176h56v144zm-41.703125-16 85.480469-70.390625c8.71875 4.132813 18.285156 6.390625 28.222656 6.390625s19.503906-2.257812 28.222656-6.390625l85.480469 70.390625zm156.085937-79.464844c1.457032-1.222656 2.882813-2.488281 4.242188-3.847656l81.375-81.375v155.734375zm-250.382812-128.535156h144c10.414062 0 19.214844 6.710938 22.527344 16h-102.527344v16h-88v-8c0-13.230469 10.769531-24 24-24zm144 352h-144c-13.230469 0-24-10.769531-24-24v-24h192v24c0 13.230469-10.769531 24-24 24zm24-64h-192v-240h88v16h-72v208h160v-48h16zm248-48h-144c-10.414062 0-19.214844-6.710938-22.527344-16h134.527344v-16h-32v-16h88v24c0 13.230469-10.769531 24-24 24zm0 0"/><path d="m80 448h48v16h-48zm0 0"/><path d="m344 385.566406-87.097656 54.433594 87.097656 54.433594v-22.433594h104v-16h-120v9.566406l-40.902344-25.566406 40.902344-25.566406v9.566406h136v-16h-120zm0 0"/><path d="m480 408h16v16h-16zm0 0"/><path d="m152 110.433594 87.097656-54.433594-87.097656-54.433594v22.433594h-104v16h120v-9.566406l40.902344 25.566406-40.902344 25.566406v-9.566406h-136v16h120zm0 0"/><path d="m0 72h16v16h-16zm0 0"/></svg>